<svg width="80" height="18" viewBox="0 0 80 18" fill="none" xmlns="http://www.w3.org/2000/svg">
<g clip-path="url(#clip0_929_2952)">
<path d="M16.9619 0.0941772L15.6906 4.90787H8.44653L8.12417 6.11039H15.3393L14.0534 10.9205H6.83472L5.22291 16.933H0.412842L4.92228 0.0941772H16.9619Z" fill="white"/>
<path d="M31.8268 0.0941772L30.4866 4.90787H22.9782L22.6413 6.11039H28.8966L27.5564 10.9205H21.3012L20.9643 12.123H28.4728L27.1326 16.9367H14.604L19.3127 0.0977973L31.8268 0.0941772Z" fill="white"/>
<path d="M36.1407 10.9205C32.1323 10.9205 30.6171 9.09978 31.595 5.45842C32.5488 1.88226 35.0299 0.0941772 39.0383 0.0941772H46.8583L45.5689 4.90787H37.7525C36.952 4.90787 36.5029 5.08897 36.4051 5.45842C36.2844 5.89306 36.6248 6.11039 37.4265 6.11039H41.0486C45.0545 6.11039 46.5818 7.89726 45.6304 11.471C44.6452 15.1148 42.1509 16.9367 38.1473 16.9367H30.3201L31.6059 12.1266H39.4259C40.2251 12.1266 40.6851 11.9093 40.8059 11.4746C40.9037 11.1124 40.5523 10.9241 39.7482 10.9241L36.1407 10.9205Z" fill="white"/>
<path d="M53.4576 16.9367H48.6512L51.8748 4.91149H47.6624L48.9482 0.0941772H62.1759L60.89 4.90787H56.6812L53.4576 16.9367Z" fill="white"/>
<path d="M66.794 8.96819L66.6383 8.50095L63.1611 0.0797119H68.5942L70.3835 4.47324L74.538 0.0941976H80L72.0858 8.55166L71.5824 9.09134L69.478 16.9367H64.6643L66.794 8.96819Z" fill="white"/>
<path d="M4.85715 5.74818L4.96944 0.0977911L0 0C2.46299 0.720786 4.35731 2.94834 4.85715 5.74818Z" fill="white"/>
</g>
<defs>
<clipPath id="clip0_929_2952">
<rect width="80" height="17.0272" fill="white"/>
</clipPath>
</defs>
</svg>
