<svg width="1851" height="390" viewBox="0 0 1851 390" fill="none" xmlns="http://www.w3.org/2000/svg">
<g clip-path="url(#clip0_1373_8100)">
<path d="M732.181 0L701.988 111.548H535.088L527.539 139.226H666.763L636.57 250.774H497.346L489.798 278.452H657.537L627.344 390H348.897L453.734 0H732.181Z" fill="white"/>
<path d="M835.34 250.774C742.245 250.774 707.02 208.839 729.665 124.129C751.471 41.0968 809.341 0 902.436 0H1083.59L1053.4 111.548H872.243C853.792 111.548 842.889 115.742 841.211 124.129C838.695 134.194 846.243 139.226 864.695 139.226H948.564C1041.66 139.226 1076.88 180.323 1055.08 263.355C1032.43 347.226 974.564 390 881.469 390H700.311L730.504 278.452H911.662C930.113 278.452 941.016 273.419 943.532 263.355C946.048 254.968 937.661 250.774 919.21 250.774H835.34Z" fill="white"/>
<path d="M1236.24 390H1124.69L1199.33 111.548H1102.05L1131.4 0H1438.36L1408.17 111.548H1310.88L1236.24 390Z" fill="white"/>
<path d="M1544.88 205.484L1541.52 194.581L1461.01 0H1586.81L1627.91 101.484L1724.36 0H1851L1667.33 195.419L1655.58 208L1606.94 390H1495.39L1544.88 205.484Z" fill="white"/>
<path d="M194.577 111.548L187.029 139.226H353.929L323.736 250.774H156.836L119.933 390H8.38695L90.2436 83.0323C96.7854 40.3419 0 0 0 0H390.832L361.478 111.548H194.577Z" fill="white"/>
</g>
<defs>
<clipPath id="clip0_1373_8100">
<rect width="1851" height="390" fill="white"/>
</clipPath>
</defs>
</svg>
